#!OML:ASF F:\VICON\USERDATA\INSTALL\rory3\rory3.ASF
:FULLY-SPECIFIED
:DEGREES
80
root 0.479834 17.4427 -20.5331 0.328894 -3.30668 -7.88524
lowerback 18.7111 1.31444 4.33376
upperback -0.00812091 3.00204 2.96723
thorax -10.4883 1.2811 -0.027829
lowerneck -3.29906 1.63894 -0.458762
upperneck 26.9274 3.04708 -2.65164
head 8.98199 1.13251 -0.566459
rclavicle 9.19379e-016 -2.04748e-014
rhumerus -39.4308 -9.77694 -68.488
rradius 48.0007
rwrist -8.12235
rhand -11.0276 7.43334
rfingers 7.12502
rthumb 14.9939 -22.0038
lclavicle 9.19379e-016 -2.04748e-014
lhumerus -39.4345 -1.23364 84.0435
lradius 117.728
lwrist -20.3773
lhand -33.0052 62.114
lfingers 7.12502
lthumb -6.21919 -92.0027
rfemur 9.74498 5.92736 35.9639
rtibia 16.2267
rfoot -19.1849 -11.3563
rtoes 14.5331
lfemur -34.3435 -9.34982 -7.48826
ltibia 24.3988
lfoot -9.88284 12.2797
ltoes -17.261
81
root 0.475946 17.4419 -20.3376 0.523687 -3.91272 -8.04789
lowerback 18.752 1.48382 4.30414
upperback -0.615172 3.26548 3.0099
thorax -11.1929 1.38836 -0.0401364
lowerneck -2.01894 1.6273 -0.375345
upperneck 27.0579 2.9822 -2.56636
head 8.79005 1.12951 -0.570216
rclavicle -3.1731e-014 -3.05134e-014
rhumerus -40.2185 -9.33404 -68.5207
rradius 48.1904
rwrist -8.27428
rhand -11.3284 6.18927
rfingers 7.12502
rthumb 14.7041 -23.2693
lclavicle -3.1731e-014 -3.05134e-014
lhumerus -40.6593 -2.51449 84.2885
lradius 116.498
lwrist -23.2917
lhand -31.9197 58.4232
lfingers 7.12502
lthumb -5.17118 -271.66
rfemur 10.6914 5.79076 36.0168
rtibia 15.1775
rfoot -18.4956 -11.1323
rtoes 13.1491
lfemur -34.4676 -10.928 -6.21684
ltibia 22.8378
lfoot -10.8067 13.9224
ltoes -16.3547
82
root 0.468849 17.4445 -20.1527 0.563476 -4.13297 -8.20323
lowerback 19.2935 1.21926 4.15079
upperback 0.574979 2.86732 3.25206
thorax -10.1927 1.24316 0.412622
lowerneck -7.81343 2.00829 -1.30582
upperneck 28.2896 3.77853 -2.37449
head 10.3271 1.33898 -0.201343
rclavicle -5.39203e-015 1.6201e-014
rhumerus -36.3037 -9.28743 -69.426
rradius 47.6951
rwrist -8.26971
rhand -11.2447 6.40034
rfingers 7.12502
rthumb 14.7848 -23.0523
lclavicle -5.39203e-015 1.6201e-014
lhumerus -37.7462 -2.43488 84.5126
lradius 114.566
lwrist -25.3815
lhand -32.9119 59.2521
lfingers 7.12502
lthumb -6.12912 -270.857
rfemur 11.6551 5.1242 36.1183
rtibia 14.2345
rfoot -17.0235 -11.3936
rtoes 9.05573
lfemur -34.566 -11.8864 -5.38886
ltibia 21.5883
lfoot -11.8141 14.745
ltoes -15.4373
83
root 0.471632 17.4151 -19.9416 0.872578 -4.71058 -8.20208
lowerback 19.0755 1.39996 4.19251
upperback -0.103064 3.12685 3.09617
thorax -10.8138 1.34257 0.149694
lowerneck -6.09922 1.90954 -0.777645
upperneck 28.2302 3.53645 -2.51466
head 9.98078 1.28699 -0.388882
rclavicle 2.34442e-014 8.94531e-015
rhumerus -37.3704 -9.07713 -69.5417
rradius 47.8645
rwrist -8.36965
rhand -11.2333 6.61192
rfingers 7.12502
rthumb 14.7957 -22.8399
lclavicle 2.34442e-014 8.94531e-015
lhumerus -38.91 -3.9547 84.6609
lradius 112.968
lwrist -27.7084
lhand -32.176 58.1191
lfingers 7.12502
lthumb -5.41866 -271.97
rfemur 12.4811 4.87491 35.9585
rtibia 13.7462
rfoot -16.0024 -11.2426
rtoes 6.43897
lfemur -34.9588 -12.2656 -4.87754
ltibia 20.863
lfoot -12.9911 15.7841
ltoes -15.0443
84
root 0.472588 17.3883 -19.7377 1.08968 -5.22365 -8.14712
lowerback 18.1108 1.60893 4.026
upperback 0.218817 3.28373 3.08632
thorax -9.91265 1.44781 0.219442
lowerneck -6.3869 1.86158 -0.610051
upperneck 28.1604 3.48646 -2.67741
head 10.0163 1.26134 -0.476773
rclavicle 1.21383e-014 2.56432e-014
rhumerus -36.5748 -9.53692 -69.7129
rradius 47.7612
rwrist -8.1822
rhand -11.1874 6.57527
rfingers 7.12502
rthumb 14.84 -22.8733
lclavicle 1.21383e-014 2.56432e-014
lhumerus -38.0966 -5.62432 85.3767
lradius 110.767
lwrist -28.0275
lhand -34.6856 59.8401
lfingers 7.12502
lthumb -7.84135 -270.325
rfemur 13.3778 5.19162 35.8139
rtibia 13.218
rfoot -15.6726 -10.7919
rtoes 7.69388
lfemur -35.2183 -12.278 -4.6667
ltibia 20.3855
lfoot -13.8675 16.2976
ltoes -14.3434
85
root 0.472536 17.3491 -19.5325 1.06286 -5.627 -8.20796
lowerback 18.1438 1.66163 3.96997
upperback 0.101215 3.35488 3.1244
thorax -10.0666 1.48151 0.272178
lowerneck -6.05358 1.81771 -0.802843
upperneck 28.253 3.42503 -2.58315
head 9.98016 1.22439 -0.420741
rclavicle 8.19987e-016 -2.29596e-014
rhumerus -36.5932 -9.46022 -69.8814
rradius 47.7606
rwrist -7.88864
rhand -11.2649 6.40154
rfingers 7.12502
rthumb 14.7653 -23.0525
lclavicle 8.19987e-016 -2.29596e-014
lhumerus -38.3288 -6.55146 85.7456
lradius 108.709
lwrist -29.4016
lhand -34.6496 57.6683
lfingers 7.12502
lthumb -7.8066 -272.496
rfemur 14.1954 5.326 35.7943
rtibia 13.1774
rfoot -15.7642 -10.3823
rtoes 7.22538
lfemur -35.2566 -12.0207 -4.6326
ltibia 20.3287
lfoot -14.3537 16.2475
ltoes -14.3429
86
root 0.474725 17.3453 -19.3227 1.15129 -5.73793 -8.16252
lowerback 18.0539 1.62937 3.94802
upperback 0.440862 3.27548 3.07525
thorax -9.63765 1.45395 0.256928
lowerneck -8.10564 2.04303 -0.752306
upperneck 28.6879 3.85054 -2.75815
head 10.5531 1.37387 -0.421533
rclavicle -2.4376e-014 -3.57812e-015
rhumerus -35.4939 -9.83948 -70.2511
rradius 47.623
rwrist -7.75476
rhand -12.5329 10.7056
rfingers 7.12502
rthumb 13.5435 -18.8339
lclavicle -2.4376e-014 -3.57812e-015
lhumerus -37.6553 -7.21095 85.9615
lradius 106.061
lwrist -32.001
lhand -35.2521 56.9233
lfingers 7.12502
lthumb -8.38811 -273.263
rfemur 14.5496 5.21349 35.6212
rtibia 13.7104
rfoot -16.0319 -10.1084
rtoes 5.24087
lfemur -35.2972 -11.4005 -5.09317
ltibia 20.3993
lfoot -13.9821 15.607
ltoes -13.9829
87
root 0.478026 17.3287 -19.116 1.25235 -5.73665 -7.95077
lowerback 17.9523 1.50965 3.76545
upperback 0.253228 3.07924 3.02106
thorax -9.79814 1.36412 0.352914
lowerneck -7.93167 2.23144 -0.694311
upperneck 28.7545 4.14046 -2.88361
head 10.5526 1.49834 -0.446084
rclavicle -2.23633e-015 -6.85807e-015
rhumerus -35.4485 -9.72504 -70.4843
rradius 47.5512
rwrist -7.40305
rhand -11.2355 6.80374
rfingers 7.12502
rthumb 14.7936 -22.6483
lclavicle -2.23633e-015 -6.85807e-015
lhumerus -38.1715 -7.71101 86.271
lradius 103.479
lwrist -34.0286
lhand -36.4789 59.9412
lfingers 7.12502
lthumb -9.57189 -270.296
rfemur 14.7317 5.10618 35.2672
rtibia 14.4677
rfoot -16.2578 -9.85257
rtoes 3.6106
lfemur -35.4721 -9.94394 -6.26881
ltibia 20.8275
lfoot -12.6873 14.4532
ltoes -12.034
88
root 0.478703 17.3126 -18.9087 1.20709 -5.84499 -7.83524
lowerback 17.9604 1.45258 3.59156
upperback 0.15068 2.97605 3.03815
thorax -9.92789 1.32132 0.495604
lowerneck -7.68088 2.40066 -0.615988
upperneck 28.7176 4.40194 -3.04084
head 10.4996 1.61188 -0.49
rclavicle 8.75895e-015 -2.99171e-014
rhumerus -35.2238 -9.78067 -70.6529
rradius 47.2454
rwrist -6.91869
rhand -11.9062 7.74253
rfingers 7.12502
rthumb 14.1474 -21.7558
lclavicle 8.75895e-015 -2.99171e-014
lhumerus -38.4912 -7.8118 86.4443
lradius 100.739
lwrist -36.3603
lhand -36.2985 58.13
lfingers 7.12502
lthumb -9.39779 -272.099
rfemur 14.9766 5.12134 35.0545
rtibia 15.415
rfoot -16.2731 -9.56616
rtoes 1.89005
lfemur -35.5105 -8.35104 -7.43834
ltibia 21.5547
lfoot -11.3803 13.4118
ltoes -11.9131
89
root 0.481803 17.2899 -18.6923 1.10771 -5.8971 -7.96764
lowerback 17.9832 1.47292 3.78054
upperback 0.245329 3.03524 3.01405
thorax -9.8238 1.34166 0.347248
lowerneck -7.81327 2.07806 -0.940524
upperneck 28.8508 3.95121 -2.82563
head 10.5568 1.39063 -0.406081
rclavicle 9.82742e-015 -1.33683e-014
rhumerus -34.8484 -10.2542 -70.8572
rradius 46.9905
rwrist -7.03726
rhand -12.1632 8.11224
rfingers 7.12502
rthumb 13.8998 -21.4032
lclavicle 9.82742e-015 -1.33683e-014
lhumerus -37.9397 -8.6853 86.7466
lradius 96.9981
lwrist -37.2472
lhand -37.309 57.4635
lfingers 7.12502
lthumb -10.3727 -272.812
rfemur 15.0825 5.13028 35.1337
rtibia 16.8244
rfoot -16.2361 -9.39883
rtoes -0.395458
lfemur -35.5286 -6.98352 -8.28842
ltibia 22.5012
lfoot -10.5004 12.4903
ltoes -10.6986
90
root 0.489312 17.2428 -18.475 0.980332 -5.86368 -8.09497
lowerback 18.14 1.40919 3.97163
upperback 0.128774 3.01052 3.04496
thorax -10.0348 1.31642 0.274844
lowerneck -7.82532 2.28558 -0.438485
upperneck 29.0789 4.26251 -3.17456
head 10.669 1.54259 -0.582499
rclavicle -1.02871e-014 1.68967e-015
rhumerus -34.9623 -10.4193 -70.9669
rradius 46.8945
rwrist -7.1783
rhand -12.0438 7.40988
rfingers 7.12502
rthumb 14.0147 -22.0977
lclavicle -1.02871e-014 1.68967e-015
lhumerus -38.204 -8.79326 87.1086
lradius 93.9494
lwrist -38.2114
lhand -36.9107 53.305
lfingers 7.12502
lthumb -9.98849 -276.952
rfemur 15.2247 4.9836 35.1817
rtibia 18.2661
rfoot -15.9804 -9.05481
rtoes -1.11303
lfemur -35.649 -5.97627 -9.0421
ltibia 23.6338
lfoot -9.8273 11.8471
ltoes -11.1118
91
root 0.493273 17.2198 -18.2556 0.852448 -5.91769 -7.94221
lowerback 18.2898 1.32133 3.72258
upperback -0.0280157 2.86946 3.13018
thorax -10.3139 1.25873 0.541708
lowerneck -7.36245 2.327 -0.690675
upperneck 29.1059 4.39298 -3.30075
head 10.5891 1.56574 -0.576225
rclavicle -6.98231e-015 -1.47101e-014
rhumerus -35.2199 -10.371 -70.8846
rradius 46.5998
rwrist -6.65512
rhand -11.5171 8.06749
rfingers 7.12502
rthumb 14.5223 -21.4042
lclavicle -6.98231e-015 -1.47101e-014
lhumerus -37.7396 -9.30516 87.5552
lradius 89.8752
lwrist -38.4157
lhand -36.5326 51.6467
lfingers 7.12502
lthumb -9.62365 -278.593
rfemur 15.3677 4.72525 34.8211
rtibia 19.6616
rfoot -15.5599 -8.40464
rtoes -1.76352
lfemur -35.6631 -5.12693 -10.0138
ltibia 24.8101
lfoot -9.20237 11.2063
ltoes -12.7433
92
root 0.500454 17.2115 -18.0112 0.552521 -6.14007 -7.59911
lowerback 18.3109 1.43199 3.40762
upperback 0.291491 2.92068 3.02558
thorax -9.97791 1.30263 0.59233
lowerneck -8.42165 2.30172 -0.519586
upperneck 29.4963 4.39668 -3.39431
head 10.9543 1.55204 -0.625145
rclavicle 1.14798e-014 6.75868e-015
rhumerus -34.8054 -10.7759 -71.1558
rradius 46.7906
rwrist -6.70953
rhand -11.3902 7.09593
rfingers 7.12502
rthumb 14.6445 -22.367
lclavicle 1.14798e-014 6.75868e-015
lhumerus -36.4819 -10.08 87.9117
lradius 85.7517
lwrist -37.9484
lhand -37.0837 52.7869
lfingers 7.12502
lthumb -10.1554 -277.478
rfemur 15.8238 4.37656 34.1148
rtibia 20.853
rfoot -14.9199 -7.55671
rtoes -2.73967
lfemur -35.2429 -4.77232 -10.9936
ltibia 25.8592
lfoot -8.48458 10.5989
ltoes -13.9894
93
root 0.509376 17.209 -17.768 0.293146 -6.22863 -7.48904
lowerback 18.1671 1.52294 3.43118
upperback 0.255775 3.03014 2.92872
thorax -9.92838 1.35174 0.448019
lowerneck -7.78851 2.19352 -0.0122678
upperneck 29.5369 4.16771 -3.51989
head 10.8513 1.49738 -0.793344
rclavicle -1.32937e-014 -3.26007e-014
rhumerus -35.2591 -11.25 -71.1484
rradius 46.5958
rwrist -6.93891
rhand -11.3357 6.92615
rfingers 7.12502
rthumb 14.6971 -22.5329
lclavicle -1.32937e-014 -3.26007e-014
lhumerus -36.0241 -10.8626 88.408
lradius 81.5711
lwrist -37.5481
lhand -37.5079 54.3523
lfingers 7.12502
lthumb -10.5646 -275.933
rfemur 16.2064 3.91132 33.6416
rtibia 21.9719
rfoot -13.8675 -6.74805
rtoes -4.49528
lfemur -34.8617 -4.98543 -11.4714
ltibia 26.7821
lfoot -7.06705 9.57089
ltoes -12.7045
94
root 0.518577 17.2428 -17.5202 0.0778006 -6.31087 -7.3499
lowerback 18.6747 1.4601 3.40519
upperback 0.000878849 2.97872 2.88031
thorax -10.4985 1.31539 0.408992
lowerneck -8.0047 2.56948 0.236103
upperneck 30.0483 4.74478 -3.70513
head 11.1167 1.75313 -0.835282
rclavicle 2.89977e-014 1.72943e-014
rhumerus -35.83 -11.292 -71.1221
rradius 46.2014
rwrist -6.8299
rhand -11.4229 7.84555
rfingers 7.12502
rthumb 14.6131 -21.6196
lclavicle 2.89977e-014 1.72943e-014
lhumerus -35.7293 -10.998 88.7494
lradius 77.2695
lwrist -37.4696
lhand -34.2903 59.4875
lfingers 7.12502
lthumb -7.45977 -270.664
rfemur 16.4653 3.46889 33.0911
rtibia 23.1451
rfoot -12.5645 -5.74836
rtoes -5.20485
lfemur -34.4918 -5.51743 -11.7911
ltibia 27.6355
lfoot -4.93479 8.39507
ltoes -10.4634
